:SAMPLES-PER-SECOND 30
:FRAME-RANGE 1-4244
:FULLY-SPECIFIED
:DEGREES
3184
root  -84.9509 37.9985 -54.2877 -2.31903 -1.33936 -6.33338
RightUpLeg  -13.6226 -8.62921 7.9514
RightLeg  24.7313 -11.0887 -1.29871
RightFoot  -9.4388 -0.0740067 0.604056
RightToes  -3.31784e-009 0 -3.6325e-017
Spine  11.6853 -2.60589 12.0686
Spine1  1.47725 -0.355865 0.459267
HEad  -5.2487 28.3386 -10.5003
LeftShoulder1  1.55181 -0.619691 -31.5861
LeftArm  28.9095 -4.78846 -33.658
LeftForeArm  -0.0988804 -7.26529 -17.7158
LeftHand  0.240056 0.0643008 -5.2852
RightShoulder  6.74911 9.09627 46.9039
RightArm  21.4369 -4.11412 17.0044
RightForeArm  9.74473 8.8453 14.9845
RightHand  0.625171 4.06342 7.38974
LeftUpLeg  -12.0582 1.59826 10.8597
LeftLeg  64.7634 -1.09649 -1.90587
LeftFoot  7.88929 1.73361 -10.4956
LeftToes  1.0277e-010 -6.71454e-011 3.04227e-011
3185
root  -85.2459 38.2342 -53.0306 -2.37146 -1.67938 -5.32457
RightUpLeg  -10.8051 -7.36862 6.92727
RightLeg  23.6533 -11.7896 -1.11221
RightFoot  -10.7364 -0.0786606 1.11824
RightToes  -3.31784e-009 0 -3.6325e-017
Spine  11.5367 -2.0143 11.8244
Spine1  1.17748 0.351023 -0.685914
HEad  -5.04245 28.3442 -10.3569
LeftShoulder1  1.50666 -0.439958 -32.1552
LeftArm  27.9517 -0.939801 -33.4801
LeftForeArm  -0.844722 -4.88148 -18.7636
LeftHand  0.221164 0.548177 -5.43121
RightShoulder  6.8578 9.33626 46.764
RightArm  21.8199 -3.78505 17.3186
RightForeArm  11.1788 8.48623 15.128
RightHand  0.665083 4.16537 7.78599
LeftUpLeg  -15.5487 2.02161 9.50841
LeftLeg  64.6854 -0.788683 -1.18558
LeftFoot  6.01595 1.37073 -9.2064
LeftToes  1.0277e-010 -6.71454e-011 3.04227e-011
3186
root  -85.5179 38.4722 -51.75 -2.46381 -1.92059 -4.25865
RightUpLeg  -7.50027 -6.91368 5.688
RightLeg  21.6592 -11.899 -0.271515
RightFoot  -11.8763 -0.073752 1.4377
RightToes  -3.31784e-009 0 -3.6325e-017
Spine  11.3595 -1.44573 11.3403
Spine1  0.889966 0.908124 -1.87476
HEad  -5.44047 28.3455 -10.7788
LeftShoulder1  1.42723 -0.182606 -32.6628
LeftArm  24.6485 3.48207 -33.0374
LeftForeArm  0.152542 -3.01745 -19.1897
LeftHand  0.204371 0.713807 -5.22951
RightShoulder  6.79888 9.26177 46.63
RightArm  19.3496 -1.56797 17.5821
RightForeArm  14.5861 4.56228 16.5165
RightHand  0.669157 5.15583 7.03708
LeftUpLeg  -18.2968 2.37666 7.76932
LeftLeg  61.966 -0.979551 -1.42064
LeftFoot  3.24773 0.963468 -7.67389
LeftToes  1.0277e-010 -6.71454e-011 3.04227e-011
3187
root  -85.7689 38.6846 -50.5056 -2.46027 -2.1785 -3.18495
RightUpLeg  -4.38704 -6.94624 4.51298
RightLeg  19.6283 -11.4655 0.469174
RightFoot  -12.6433 -0.0675642 1.59148
RightToes  -3.31784e-009 0 -3.6325e-017
Spine  11.0401 -0.778885 10.644
Spine1  0.928906 1.466 -2.93942
HEad  -6.4311 27.9796 -11.403
LeftShoulder1  1.35157 0.0384079 -32.9442
LeftArm  19.8096 7.90831 -32.5791
LeftForeArm  2.76609 -1.63305 -19.1706
LeftHand  0.220065 0.566118 -5.42752
RightShoulder  6.67018 9.08709 46.3765
RightArm  21.0451 -1.48391 17.6189
RightForeArm  11.7848 6.37015 16.0398
RightHand  0.626455 5.0214 6.66291
LeftUpLeg  -20.3326 2.87356 5.74587
LeftLeg  56.5835 -1.42924 -1.84101
LeftFoot  0.660511 0.719627 -6.87976
LeftToes  1.0277e-010 -6.71454e-011 3.04227e-011
3188
root  -86.0099 38.8749 -49.3047 -2.37128 -2.29602 -2.28065
RightUpLeg  -1.32126 -7.06034 3.56181
RightLeg  17.3256 -11.0395 1.05689
RightFoot  -13.0912 -0.0607175 1.83103
RightToes  -3.31784e-009 0 -3.6325e-017
Spine  10.8724 -0.180675 9.77413
Spine1  0.718587 1.87759 -3.80343
HEad  -7.33343 27.9332 -12.005
LeftShoulder1  1.30425 0.149934 -32.8291
LeftArm  15.7674 12.4406 -32.4509
LeftForeArm  4.54295 -1.22474 -18.9325
LeftHand  0.241251 0.551802 -5.92198
RightShoulder  6.55445 8.94257 46.094
RightArm  24.5372 -1.4216 17.5767
RightForeArm  7.45757 8.57995 15.4152
RightHand  0.542371 4.92405 5.79007
LeftUpLeg  -21.4161 3.76062 3.85702
LeftLeg  48.5021 -2.14626 -2.18462
LeftFoot  -0.714799 0.613791 -6.5505
LeftToes  1.0277e-010 -6.71454e-011 3.04227e-011
3189
root  -86.2355 39.0436 -48.1548 -2.06537 -2.19226 -1.45028
RightUpLeg  1.69918 -7.04152 2.76501
RightLeg  14.3847 -10.8682 1.5857
RightFoot  -13.2742 -0.0565418 1.97874
RightToes  -3.31784e-009 0 -3.6325e-017
Spine  10.5877 0.28845 8.57797
Spine1  0.58176 2.09789 -4.5438
HEad  -8.26941 27.6694 -12.2999
LeftShoulder1  1.22697 0.336437 -32.6769
LeftArm  13.8165 16.3523 -32.3488
LeftForeArm  5.7178 -1.36084 -18.7152
LeftHand  0.269091 0.381906 -6.3456
RightShoulder  6.4522 8.79535 45.9135
RightArm  24.9392 -1.65908 17.479
RightForeArm  6.90815 10.421 14.3706
RightHand  0.46603 4.6204 5.10379
LeftUpLeg  -21.5443 5.37514 1.73812
LeftLeg  37.5625 -2.59782 -1.78649
LeftFoot  -1.15728 0.557448 -6.17545
LeftToes  1.0277e-010 -6.71454e-011 3.04227e-011
3190
root  -86.4282 39.1728 -47.0415 -1.55951 -1.85944 -0.835136
RightUpLeg  4.55257 -6.76216 2.24853
RightLeg  11.1616 -11.1875 2.08553
RightFoot  -13.3985 -0.0434793 2.63489
RightToes  -3.31784e-009 0 -3.6325e-017
Spine  10.0244 0.681686 7.28117
Spine1  0.857918 2.259 -4.95887
HEad  -9.37784 27.5761 -12.8618
LeftShoulder1  1.18988 0.434436 -32.7036
LeftArm  12.3814 19.3605 -32.1466
LeftForeArm  6.53428 -1.53493 -18.5339
LeftHand  0.290578 0.351591 -6.80129
RightShoulder  6.34053 8.71982 45.3803
RightArm  24.4287 -1.51892 17.5486
RightForeArm  6.56395 11.3382 13.7399
RightHand  0.530057 4.73373 5.77074
LeftUpLeg  -20.7659 8.20191 -0.680306
LeftLeg  24.3736 -3.86277 -1.58696
LeftFoot  -0.662635 0.59115 -6.27999
LeftToes  1.0277e-010 -6.71454e-011 3.04227e-011
3191
root  -86.5891 39.2444 -45.9345 -1.13153 -1.47192 -0.475237
RightUpLeg  7.36059 -6.39404 1.99726
RightLeg  8.16064 -11.5864 2.59074
RightFoot  -13.3205 -0.0401116 2.90388
RightToes  -3.31784e-009 0 -3.6325e-017
Spine  9.44621 0.926342 6.27101
Spine1  1.39888 2.46612 -5.47273
HEad  -10.3646 27.5413 -12.9555
LeftShoulder1  1.15239 0.518054 -32.533
LeftArm  10.7806 21.4095 -32.1172
LeftForeArm  7.39713 -1.2278 -18.4558
LeftHand  0.307185 0.292012 -7.09338
RightShoulder  6.34545 8.75132 45.2955
RightArm  24.2983 -1.2686 17.2285
RightForeArm  6.31117 11.6877 13.5059
RightHand  0.501714 4.70447 5.46469
LeftUpLeg  -19.1494 10.2239 -2.36888
LeftLeg  11.1006 -3.0369 -2.00996
LeftFoot  0.370391 0.778306 -7.60447
LeftToes  1.0277e-010 -6.71454e-011 3.04227e-011
3192
root  -86.7169 39.166 -44.7407 -1.07611 -0.862427 -0.428348
RightUpLeg  10.1604 -6.17259 2.02585
RightLeg  6.42767 -12.0137 2.8619
RightFoot  -14.0413 -0.0091645 3.64906
RightToes  -3.31784e-009 0 -3.6325e-017
Spine  8.76025 1.00063 5.57193
Spine1  2.23099 2.57324 -5.72964
HEad  -11.1705 27.6442 -12.6977
LeftShoulder1  1.12113 0.572936 -32.189
LeftArm  8.77924 22.5094 -32.1375
LeftForeArm  8.41491 -0.418655 -18.436
LeftHand  0.318777 0.242592 -7.28081
RightShoulder  6.4349 8.98754 45.0549
RightArm  23.4 -1.00621 17.2539
RightForeArm  6.51317 10.8596 13.9981
RightHand  0.469257 4.75749 5.06269
LeftUpLeg  -16.8681 4.11788 -0.726417
LeftLeg  0.543687 7.81996 -4.91716
LeftFoot  1.04871 0.891313 -8.26119
LeftToes  1.0277e-010 -6.71454e-011 3.04227e-011
3193
root  -86.8032 38.9867 -43.4455 -1.15387 0.278412 -0.531121
RightUpLeg  12.5903 -6.32756 2.02829
RightLeg  6.234 -12.4252 3.05844
RightFoot  -15.2409 0.064519 4.9287
RightToes  -3.31784e-009 0 -3.6325e-017
Spine  7.85447 0.878152 5.00118
Spine1  3.05037 2.43735 -5.72802
HEad  -11.3895 27.4816 -11.8637
LeftShoulder1  1.10164 0.607033 -31.9657
LeftArm  8.95844 22.5829 -31.8624
LeftForeArm  7.78395 -0.192174 -18.528
LeftHand  0.302494 0.548546 -7.39712
RightShoulder  6.46428 8.96534 45.3526
RightArm  19.3553 -1.813 17.0246
RightForeArm  9.32067 10.8354 13.6015
RightHand  0.51096 4.29952 5.83118
LeftUpLeg  -15.3951 3.39697 -1.92868
LeftLeg  -4.58546 14.3922 -5.86843
LeftFoot  1.5834 1.1132 -9.89556
LeftToes  1.0277e-010 -6.71454e-011 3.04227e-011
